<?xml version="1.0" encoding="UTF-8"?>
<svg id="_图层_1" xmlns="http://www.w3.org/2000/svg" version="1.1" viewBox="0 0 3840 2160">
  <!-- Generator: Adobe Illustrator 30.0.0, SVG Export Plug-In . SVG Version: 2.1.1 Build 123)  -->
  <defs>
    <style>
      .st0 {
        fill: #fff;
      }
    </style>
  </defs>
  <path class="st0" d="M1629.15,845.22c2.34,5.42-9.83,5.04-13.05,4.97-18.25-.37-40.03.54-59.89,3.04-9.02,1.14-17.68,4.83-27.01,3.98-2.46,8.42,22.34-.2,12.72,9.71-13.36-.82-26.15,2.94-39.46,2-15.28-1.08-37.43-8.84-52.75-13.19-137.13-38.86-292.87-106.92-437.32-100.52-13.15.58-35.49,8.97-45.93.12-11.08-9.4-13.31-27.62,1.89-34.16,10.07-4.33,13.5,1.5,22.11,1.78,7.24.23,23.96-2.3,31.42-4.21,11.13-2.84,22.67-9.15,29.36-18.68-5.98-12.47-18.09-20.59-24.14-33.32-5.51-11.6-5.14-25.31-9.14-34.82-3.2-7.62-17.85-16.89-22.86-29.1-2.76-6.73-5.77-29.81,4.28-23.3.56.36.88,8.09,5.31,11.72,9.21,7.52,32.99,9.73,41.21,22.74,11.84,18.75-8.59,26.95-6.11,41.9,3.21,19.34,35.67,21.29,45.37,38.74,8.18,14.72,1.57,19.76-7.73,30.69,24.63,3.96,18.33-6.21,26.24-20.71,11.47-21.03,49.26-56.37,55.69-76.22.33-1.01.54-3.26-.96-2.95-4.81,4.3-20.72,14.91-26.43,12.53-8.88-3.71-13.53-20.71-12.52-29.34,1.25-10.61,39.86-56.95,48.74-69.31,2.1-2.92,5.41-6.01,5.19-9.78-2.54-2.54-51.51,33.49-63.16,33.88-15.55.52-31.12-30.96-19.88-41.98,1.23-1.2,26.53-19.16,28.1-19.87.87-.39,3.28-.51,2.96.97l-13.97,18.01c8.7,1.47,21.36-6.05,29.73-10.24,18.85-9.44,38.18-21.32,56.32-32.13-2.79-6.88,1.76-18.37-4.22-19.7l2.1-8.86c-15.32,1.7-25.92,11.92-37.95,19.97l18.41-30.52c5.85-19.53-5.32-17.17-12.83-30.02-3.74-6.4-21.99-49.17-20.59-53.24,5.74-16.73,13.38-6.05,19.95-5.92,4.62.09,12.44-4.75,18.55-5.65,11.98-1.77,20.89.69,31.85,5.08,19.75,7.89,27.87,23.31,41.59,38.33,4.45,7.99,2.82,18.14-2.28,25.51-4.58,6.62-17.03,11.77-21.61,16.57-5.09,5.33-7.59,17.16-11.28,23.75l-13.86-5c-7.81,7.65,1.62,16.4-3.94,25.09,2.75,2.15,35.25-16.9,37.15-23.63,14.27,3.11,32.26-3.87,42.79,10.67,14.39,19.87-17.96,25.26-31.02,32.9-28.51,16.7-47.65,55.73-70.89,79.01l.97,2.96c21.49-13.19,37.67-32.95,56.81-49.07,14.15-.04,34.93,17.43,26.27,32.21-4,6.83-22.35,21.19-29.12,28.84-7.73,8.75-13.75,19.35-22.55,27.41l-2.4,76.51c1.25,1.45,11.83-7.32,13.28-8.68,6.65-6.25,22.6-26.1,24.51-34.47,1.18-6.07-5.86-.12-9.77-1.73-1.95-.8-4.04-4.64-6.04-6.07l9.81-6.3-5.83-14.65c6.84.1,7.7,9.84,15.11,4.11,2.1-1.62,30.34-40.05,31.32-42.68,4.11-11.01-7.96-14.48,5.72-22.23,8.03-4.55,15.96-.46,23.58,4.04,11.31,6.69,23.45,19.94,13.07,32.62-11.28,13.77-30.58,27.73-42.15,40.75-.76.85-2.95,5.12-2.68,5.32,7.96-1.14,15.46.97,23,1.6,2.55.21,5.57-1.63,9.41-1.19,14.2,1.64,37.76,15.34,42.94,29.18,7.67,20.5-6.1,29-22.72,35.96-10.99-2.34-24.57-11.8-35.53-11.64-15.48.22-28.33,11.17-43.08,14.02,10.2-10.13,25.26-15.29,32.05-28.95-6.03-15-25.61-14.63-33.05-26.94l-9.01,10.99,4.17,2.11-.48,3.39c-12.76,23.16-14.91,51.26-29.65,73.37,39.73,6.09,79.41,13.85,119.18,19.76,111.13,16.53,223.2,24.65,335.34,32.45l15.23,3.76h-45.98l15.34,3.84c10.35-.31,21.5-.82,31.72.94,2.26.39,4.43-.19,4.92,3.2-12.31,2.84-31.73-1.73-42.89.08-2.35.38-4.75,1.25-5.09,3.92l17.99-1.96c-3.26,7.15-13.78,2.52-20.48,4.47l-19.5,5.5h43.98c-8.02,8.79-26.38,2.38-36.76,2.18-5.6-.11-12.05,3.95-19.2-.18-.83,5.58.96,3.73,4.95,3.99,1.89.12,26.22-1.38,19.01,3.99l-75.95,6.97-2,3.01,28.73,2.1c1.98.36,1.04,3.92,1.25,3.92h45.98ZM1277.33,629.44c-6.8-.09-14.05,6.87-17.99,11.95,8.46,1.55,13.69-6.11,17.99-11.95ZM1175.38,659.4c-3.51-.72-4.94,1.8-7.02,3.95-20.65,21.33-25.85,37.84-55.6,52.51-4.46,2.2-14.42.26-15.32,11.45l77.94,9.99c1.12-1.05-10.13-22.38-10.07-29,.05-5.59,4.59-10.74,5.62-16.42,1.87-10.39,1.32-22.09,4.46-32.49Z"/>
  <path class="st0" d="M2910.5,983.09c9.31-9.29,41.26,8.5,45.06,16.01.38.76,1.17,15.32,1.03,16.94-.17,1.95-.33,3.15-1.15,4.99-4.76,10.59-43,24.57-47.07,31.39-3.72,6.24-1.18,17.39-1.87,24.59,3.9-2.8,11.84-7,14.13-10.94,1.85-3.18-1.49-7.37,3.1-8.77,17.31-5.3,45.28,3.21,52.5,20.9,9.05,22.18-18.47,24.41-25.77,40.75,5.91.02,12.52,7.04,17.42,7.64,7.32.89,19.03-.66,27.56,2.2,30.3,10.15,23.15,40.72-2.46,43.73-23.54,2.77-34.42,6.58-56.57,17.34-6.05,2.94-27.02,13.19-30.59,16.88-2.66,2.75-4.49,16.72-2.37,20.17,44.09,24.84,85.97,53.48,132.98,72.88,84.55,34.88,179.61,51.9,263.42,86.36,1.73.71,18.05,7.08,14.38,10.58l-64.92-20.01c-3.17,2.05,1.57,2.54,2.98,2.98,7.67,2.38,33.01,8.85,37.88,12.12,2.09,1.41,2.52,2.4,2.07,4.9l-3.97,1.98,11.98,6c-8.71-1.47-17.44-4.93-25.97-7-2.04-.49-6.31-2.92-5.99,1,10.46,3.09,20.53,6.87,31.04,9.98,2.87.85,3.52-1.21,2.93,4.01-6.09,6.24-56.87-12.54-67.96-11.94l10,3.99-2.02,5.97,8.04.98c3.21,1.58.24,4.87-1.08,5.04-1.95.25-31.88-9.79-37.84-10.98-13.31-2.65-28.69-1.92-42.05-7.01l-2.05,4c3.2,4.04,85.11,17.66,100.03,23.91,1.1.46,6.71,2.14,3.92,4.08l-64.14-13.82c-44.89-10.11-97.73-6.09-141.18-18.73-65.48-19.05-110.77-93.13-157.47-138.32-1.16-1.12-7.5-5.64-7.98-4.99l-.1,85c.66,20.71,6.62,47.81,4.13,67.9-.52,4.16-8.14,23.1-10.9,25.07-10.25,7.35-21.73,2.7-29.17-5.66-14.87-16.72-40.2-66.56-42.41-87.88-.58-5.55-6.77-4.33-9.07-1.91-.82.86.02,3.82-.95,4.87-3.4,3.66-11.13,10.39-16.26,15.76-34.13,35.68-76.75,75.1-120.98,97.85-3.2,1.65-6.18,1.8-2.22-2.22,8.5-8.62,29.36-17.9,40.92-27.03,4.21-3.32,12.45-9.11,15.23-12.91,1.44-1.96-.11-4.62.08-4.76,1.66-1.28,8.61-.72,11.71-3.28,1.68-1.39,7.24-12.69,1.09-10.9-8.47,2.46-35.49,29.7-45.14,36.81-7.68,5.66-31.22,21.77-38.89,25.08-5.38,2.32,1.47-6.85-3.93-3.95-15.89,8.54-30.45,17.49-47.63,24.34-10.58,4.22-21.86,9.86-33.36,9.59l59.69-25.24c20.68-5.97,43.42-32.05,60.87-39.27,3.87-1.6,7.03.84,7.28.57.29-.32.43-4.9,2.94-8.11,3.03-3.88,8.56-6.24,12.2-9.8,39.97-39.11,73.41-78.95,103.72-126.11,7.57-11.78,15.55-24.95,21.16-37.78-3.39-3.4-68.4,46.22-79.01,45.91-9.09-.26-22.97-24.22-22.97-32.93,0-5.46,4.32-16.04,8.95-19.07,3.61-2.37,8.2-2.06,11.88-4.11,6.38-3.56,48.39-29.6,49.09-32.98-22.24-27.17-25.42-47.56-8.99-78.8,12.31-23.4,28.35-26.6,45.02-44.87-18.12-10.44-38.25-26.53-38-49.53l7.09-4.93c1.48.03,5.33,5.68,8.89,6.68,8.51,2.38,41.99-19.89,51.04-25.16,1.68-2.8,1.76-41.41.9-46.83-1.32-8.33-23.41-23.61-9.87-30.09.84-.4,17.21-4.23,18.12-4.07,6.75,1.23,23.55,14.25,27.84,20.06,12.16,16.52.07,25.1.03,42.95ZM2872.49,1073.02c-14.46,5.57-47.48,14.27-48.17,32.93-.27,7.42,3.68,15.17,2.22,23,3.01,3.2,38.79-21.27,44.18-24.91l1.77-31.02ZM2904.51,1112.97c5.75-3.65,25.8-32.9,21.95-37.96-19.76,6.44-23.78,17.93-21.95,37.96ZM2870.5,1151.93v-38.96c-17.07,19.13-30.3,42.32-38,66.92l38-27.96ZM2904.5,1162.91c1.6,1.8,39.22-18.76,42.11-22.89,3.9-5.57-4.06-10.88-8.84-12.91l-18.31,13.84-1.96-4.01c-13.1,7.6-14.76,10-12.99,25.96ZM2870.5,1166.94c-2.22-1.75-28.82,16.94-32.38,20-4.36,3.74-12.31,15.44-15.66,17.06-3.97,1.92-6.23-2.39-9.26-2.71-5.65-.6-34.21,23.18-38.65,29.56,31.25-10.02,57.96-31.38,87.82-45.07,7.77-3.86,5.09-12.14,8.13-18.83ZM2866.53,1270.84l-39.7,53.22c5.89,16.51,18.95,32.15,34.69,40.29,10.23-7.02,4.54-19.89,4.78-28.59.54-19.31,3.16-40.89,2.2-59.97-.11-2.25,1.3-5.49-1.98-4.95ZM2772.56,1370.75l-11.99,7.95c7.75,1.72,8.82-2.09,11.99-7.95ZM2762.56,1382.74c-6.29-2.73-8.94.59-11.99,5.96,4.74-.29,10.19-.63,11.99-5.96Z"/>
  <path class="st0" d="M1053.45,1142.94c-9.52,6.37-28.56,13.89-29.96,25.98l7-5.98,2.97,3.95c-13.23-.31-15.05,17.97-20.9,22.26-3.54,2.59-6.43-.79-9.06.72-1.09.62-5.95,7.05-10.29,9.72-5.22,3.2-26.4,12.45-27.39,13.7s-.22,5.19-2.22,6.8c-.78.63-14.05-1.37-16.09,8.77l121.16-49.71c30.96-3.95,84.53,37.24,75.8,69.78-1.63,6.08-10.19,17.03-13.4,24.56-10.12,23.73-17.61,48.69-27.59,72.5l.19,4.54c7.81,1.29,19.82,12.6,17.88,20.85-.42,1.8-3.95,1.86-4.97,3.42-2.58,3.93-.92,9.76-6.09,13.99-4.59,3.77-18.08,6.72-24.25,7.75-4.96.83,1.49-7.78-3.78-3.81-9.63,7.24-10.88,26.59-28.98,31.13-5.83,1.46-7.39-3.61-11.53-4.77-7.81-2.18-13.77,3.97-20.5,6.67-3.39,1.36-5.28,2.27-8.44,3.53-12.39,4.95-24.54,10.18-37.5,13.35,2.47-2.96,6.93-6.38,10.09-8.86,2.37-1.86,6.27-2.48,8.05-4.15,1.89-1.77-.29-4.72-.09-4.85,1.61-.99,6.82,1.02,10.17-2.99,1.51-1.81-.16-4.8.8-6.99.65-1.48,9.85-9.09,1.99-8.11l-75.7,32.05c-8.64-10.1-19.06-13.75-19.36-29.17-.28-14.39,9.22-14.2,17.07-20.86,10.24-8.7,22.08-19,31.03-28.93,1.84-2.04,15.37-17.59,13.92-19.03-10.47,3.78-23.54,15.25-34.77,13.94-10.21-1.2-25.16-14.81-20.16-25.86,3.59-7.93,8.72-3.31,13.37-4.47s21.74-11.33,27.63-14.53c15.3-8.3,29.77-18.47,44.97-26.97,13.55-1.26,28.77,1.8,39.07,10.86,3.58,3.15,2.61,8.4,7.85,7.09-.05-14.77,22.57-66.5,11.12-76.18-6.98-5.9-49.55,17.14-58.42,21.88-20.51,10.96-71.06,48.3-91.63,46.47-15.85-1.41-29.6-26.47-26.05-40.17.54-2.1,4.73-10.13,6.16-11.87,6.67-8.17,35.06-25.13,45.85-34.09,4.31-3.58,26.99-22.37,27.06-24.83l-33.01-74.99c-2.77,3.77-6.1,7.39-8.64,11.3-7.21,11.09-27.25,44.12-30.82,55.12-2.94,9.08-.95,22.35-9.34,30.12-.68.63-15.69,7.25-17.08,7.35-24.42,1.81-42.06-39.32-44.55-59.51-1.49-12.1,10.43-38.72,17.84-49.07,15.75-22.02,36.18-22.99,61.6-23.32-.68,7.75-12.56,7.37-17.36,12.59-.7.76-4.61,7.91-4.61,8.38v28.97c15.24-7.29,30.7-15.17,45.32-23.64,6.54-3.79,14.5-11.8,20.64-11.34l-9.07,8.97c-2.02,4.41,16.48,20.79,21,23.15l3.78-2.42c-3.56-11.16,10.13-42.27-5.7-39.66,12.09-7.77,6.38-14.42,6.74-24.33.77-21.56,4.26-55.06,1.12-75.46-2.53-16.4-26.68-20.37-23.71-41.85l32.64-13.22c27.23,8.03,75.29,27.6,70.99,62.75-.68,5.56-4.14,11.1-5.24,16.76-2.34,12.09-3.69,24.4-6.59,36.35l9.95,1.02c-18.36,19.13-12.93,51.91-15.93,76.93,10.25-9.19,19.31-20.32,27.88-31.05,5.4-6.76,32.79-41.91,31.76-47.59-1.4-7.75-17.64-4.08-23.67-7.29-1.02-3.89,1.61-3.86,3.35-5.62,10.21-10.3,31.21-22.15,46.02-18.81,4.79,1.08,27.08,13.08,31.58,16.46,16.9,12.67,27.42,35.74,11.8,53.75-.82.95-11.07,9.94-11.75,10.34-11.4,6.66-26.59,13.86-38.08,21.78-12.47,8.59-25.32,21.06-37.96,30.01l-2.96-.97,13.98-16.97c-1.38-1.33-21.16,14.08-23.99,15.97.51-.28,4.24-.65,3.99.99-6.56,6.6-10.95,16.87-21.98,16.97,4.31-2.77,15.44-16.54,17.99-17.96ZM939.51,1394.69l89.07-31.83c9.1-13.56,12.59-30.49,16.86-46.07-1.81-2.21-31.55,21.95-34.07,22.96-2.9,1.17-5.44-1.55-8.96.77-4.07,2.68-3.79,7.62-6.4,10.31-2.36,2.43-27.77,21.45-29.55,21.92l-1.96-4.01c-4.81,11.73-17.31,16.36-25,25.95ZM1095.45,1342.76c5.78-5.09,8.29-16.53,9.95-23.97l-8.42,14.53-1.53,9.44ZM981.49,1396.73c-3.57-.22-8.53,2.24-9.99,5.96,3.57.22,8.53-2.24,9.99-5.96ZM971.48,1408.72h-11.97c.44,4.5,7.91,3.47,11.97,1.95v-1.95Z"/>
  <path class="st0" d="M2387.02,437.34c53.22,14.86,22.61,39.27-5.22,60.24l-3.02,35.93c8.36-2.42,17.27-15.74,24.94-16.17,9.46-.53,36,5.23,32.81,18.75-1.05,4.43-30.32,21.57-36.8,27.46-8.75,7.96-25.32,27.33-32.27,36.6-4.86,6.48-8.76,14.16-12.68,21.26,2.95,2.7,44.59-26.96,51.31-27.5,1.19-.1,20.89,7.1,22.1,8.12,12.25,10.37,4.11,19.12-4.39,27.44-10.41,10.19-57.4,54.97-66.35,59.73-6.42,3.41-4.25.36-12.12,6.22-2.91,2.17-9.51,1.97-8.52,7.92,101.78,2.17,201.11,29.78,301.83,41.95-26.97-33.68-48.83-71.27-68.01-109.86-3.14-2.18-18.45,14.26-22.08,16.83-9.74,6.89-19.33,9.83-29.23,14.74-7.25,3.59-13.76,11.33-22.6,10.36,11.9-20.06,47.73-49.89,53.14-71.93,2.1-8.56-8.2-17.2-9.19-25.96-4.6-1.17-3.28.92-4.54,2.52-11.33,14.36-18.09,34.21-27.79,50.05-6.69,10.92-27.99,44.98-35.53,52.39-2.32,2.28-6.8,5.68-10.17,6.04-11.24-1.75-25.58-28.38-27.5-38.59-1.57-8.39,7.43-20.19,10.18-28.89,3.77-11.93,12.06-45.14,7.5-56.08-1.22-2.93-12.27-1.07-9.65-11.84.48-1.98,4.99-10.62,6.86-11.3,9.94-3.63,9.33,4.9,11.76,5.68,5.66,1.83,7.42-5.75,10.84-9.06,9.96-9.64,23.25-17.94,30.16-29.94.6-5.89-25.86-58.05-31.24-64.67-3.15-3.88-15.6-8.48-9.94-16.31,9.9-13.71,37.48,25.52,41.95,32.27,2.9,4.38,14.03,26.77,15.39,27.56,6.21,3.57,11.6-13.09,20.64-13.52,7.21-.34,20.2,3.19,26.1,7.78,26.85,20.92-15.41,36.77-28.86,48.85l24.87,47.01c10.24-11.9,10.09-27.22,11.01-41.92,30.17,11.9,30.66,32.63,19.53,60.5-2.02,5.07-7.86,11.24-8.72,15.41-1.94,9.41,30,49.38,36.17,59.95,4.55.83,2.73-1.98,2.97-4.94.83-10.52-3.68-21.19-.21-30.23,1.04-2.71-.69-3.43,4.2-2.78.43,5.75.75,13.29,2.23,18.75,3.52,13,16.11,36,22.72,49.23,7.82,15.63,21.22,25.92,13.02,45.89,22.02,5.01,46.45,10.12,66.66,20.41,2.71,1.38,3.09,4.74,4.71,5.69,3.65,2.16,9.95.14,10.6,3.87l-25.97.04c.94,5.3,13.85.37,11.97,7.96-14.02-3.81-23.84,3.94-37.97,2.03,2.23,5.38,8.89,6.11,13.99,5.99-4.5,10.34-18.35,1.73-28.2,5.12-5.16,1.77-5.2,6.33-7.2,6.88-21.6,5.98-89.12-22.78-112.98-30.54-65.46-21.29-132.59-44.41-200.94-54.9-10.15-1.56-32.21-5.41-41.28-4.35-10.83,1.27-48.59,23.89-57.28,18.89-11.8-16.65-11.09-37.96,13.29-39.15,6.4-.31,3.56,3.74,7.68,4.28,29,3.81,38.83-6.12,57.16-25.08,4.2-4.34,24.42-26.62,25.92-30.05,1.04-2.38-.54-3.89-2.95-2.95-11.49,4.47-32.04,32.08-44.75,34.89-14.79,3.27-10.92-12.77-16.11-21.91,2.5-12.37,66.31-83.57,61.81-88.93-13.88,6.67-26.64,18.34-38.99,27.96l-5.94-3.97-3.03,3.96,3.02,2.04-72.88,55.03c-14.97,6.8-27.08-17.05-27.08-28.88,0-15.59,34.35-27.1,43.99-38.14l2.96.97-23.97,22,6.02.03,87.61-52.29,1.79-15.77c-2.86-5.23-8.42-2.66-12.23-.65-3.42,1.81-29.67,25.37-31.23,23.7,2.48-15.93,18.98-21.47,27.94-32.96-13.22-11.12-28.63-20.44-33.89-38.02l4.92-6.43c3.37,1.56,6,3.58,10.01,3.62,8.09.07,36.05-19.55,38.93-27.16l6.05-77.87c-.49-15.9-20.76-21.47-15.74-38.74,7.63.56,13.34-8.92,20.26-7.87,13.67,2.08,40.13,23.22,43,37.07,3.83,18.46-10.21,42.53-7.27,62.23ZM2518.69,595.43c3.68,3.5,17.2-17.62,17.9-20.94-4.38-7.16-9.9-31.5-19.97-28.18-4.08,1.35-9.92,6.76-15.19,8.91-12.84,5.23-19.4,3.51-32.72,2.28,11.17,20.58,18.07,35.63,12,59.91,4.09,4.66,45.04-39.93,48.97-43.94,4.54,8.57-9.35,12.8-11,21.95ZM2296.8,713.36c-6.95.66-24.74-1.54-25.98,7.96,8.7.75,19.91-.81,25.98-7.96Z"/>
  <path class="st0" d="M3208.33,380.65c-.21-1.55-2.39-4.32-2.29-6.68-7.31-6.47-46.56,20.5-57.67,18.68,8.83-22.38,42.66-63.64,68.75-60.83,25.39,2.74,55.84,30.11,55.23,56.89-.13,5.85-4.65,10.68-5.58,16.37-5.45,33.35-5.17,76.89-6.61,111.43-1.03,24.61,5.27,85.61-15.66,102.09-3.73,2.94-6.62,1.95-9.56,3.48-1.17.61-.96,4.11-6.03,4.94-14.12,2.31-23.84-15.47-26.61-27.59-4.1-3.02-17.62,17.62-19.93,21.01-1.49,4.98,6.69,2.24,10.43,3.49,10.36,3.46,24.01,14.46,26.68,25.44,4.49,18.43-27.33,68.13,14,73.76,38.53,5.25,128.54-8.52,161.41-30.12,21.75-14.29,31.25-46.86,27.32-71.6,4.17-1.56,6.7,7.3,7.36,9.6,1.93,6.77,1.88,21.16,5.59,26.39,5.32,7.51,4.99-11.16,5.03-13.05s-1.07-6.74,2.01-3.99c3.51,11.98,15.26,23.48,19.81,32.57.59,1.17,6.02,16.58,6.09,17.5.6,8.76-9.74,29.11-15.86,35.92-39.4,43.78-179.45,64.79-233.52,47.5-26.48-8.46-50.09-40.07-49.79-67.96.18-16.89,14.77-59.77,8.97-71.05-.95-1.86-1.84-4.12-4.54-3.45l-103.98,123.88c-1.98.87.47-6.19-3-3.01-5.32,4.87-12.06,18.72-18.69,24.29-25.05,19.99-50,40.69-79.25,54.64l25-31.94,1,6c4.61,4.97,21.41-19.1,22.02-23.98l4,1.02-1.05,6.95c49.82-57,93.03-119.75,134.93-182.83-3.86-.87-13.9,5.56-16.12,7.86-7.13,7.4-1.91,18.98-20.45,14.33-5.42-1.36-22.03-13.76-23.2-18.59-1-4.12,3.72-6.3,3.5-9.26-.41-5.47-19.08-28.36-17.18-38.82,3.09-35.62,5.22-71.66,9.74-107.13,1.77-13.92,6.66-57.83,12.01-67.92,1.4-2.63,4.53-5.37,7.03-7.09,8.71-1.5,27.17,38.34,24.73,47.79l4-7.98,3.56,3.18-5.57,92.72,29.95-40.97c-10.89-.36-18.31-1.83-25.97-10.06-1.2-4.87,33.57-24.56,39.44-28.55,10.48-2.18,18.54,8.16,28.52,9.65-1.96-20.29,2.65-45.26,0-64.94ZM3206.31,499.54c-1.7-12.59,3.3-26.12-.97-37.95l-44.99,43.93c18.29-5.69,25.8-23.55,45.96-5.97ZM3182.35,545.47c7.88,2.81,15.86,3,23.05-1.9l.9-24.05c-3.8,2.91-26.15,22.87-23.96,25.95ZM3136.37,529.51v31.97c9.55-6.4,14.7-17.37,21.99-25.96-11.22,4.16-14.03,1.28-21.99-6.01ZM3178.33,547.5c-2.24-2.64-20.27,17.07-21.98,19.95,9.31-3.8,25.84-8.1,21.98-19.95ZM3110.4,689.36c4.46-2.31,8.85-6.45,7.96-11.99-2.58.67-9.33,10.36-7.96,11.99ZM3114.4,695.36c3.26-1.44,6.61-4.39,5.96-7.99-3.26,1.44-6.61,4.39-5.96,7.99ZM3112.38,691.38c-3.58-3.17-26.19,22.17-25.97,27.95l6.99-5.98c1.48-.31,1.36,2.09.97,2.96-3.36,7.51-21.39,16.73-19.95,29l25.99-33c-10.25-3.91-1.22-4.34,1.99-7.87,3.46-3.8,6.28-9.23,9.98-13.06ZM3051.57,764.46c6.01-6.81,14.18-14.48,16.81-23.14l-35.95,38.99.97,2.96c6.16-6.12,12.45-12.34,18.16-18.81Z"/>
  <path class="st0" d="M2190.86,1146.92c11.18-.37,17.19-13.81,28.92-14.01,9.13-.16,31.71,4.99,31.09,16.85-.72,13.92-22.85,16.65-32.63,21.55-5.57,2.79-34.74,23.54-36.44,27.65-1.69,4.08,2.62,8.45,2.74,12.87.17,5.75-7.98,32.29-5.66,35.02l25.39-22.01c10.74-1.69,25.92,4.11,24.58,16.99-.37,3.59-30.15,32.32-35.65,40.33-8.54,12.47-11.18,24.99-17.48,36.48-2.41,4.4-9.26,6.49-8.85,12.12,51.96,13.73,105.99,16.32,158.66,26.24,24.81,4.67,52.51,10.98,77.28,16.66,5.46,1.25,14.99,2.15,17.92,7.04l-50.94-5.99-5.03,3.99c12.1,2.31,27.76,4.27,39.28,7.71,2.68.8,6.08.76,6.69,4.28-9.94,3.45-18.16-.97-28.01-1.96l-.94,3.96-7.96-4.07c-2.19,7.84-7.6,2.55-12.41,2.83-12.86.77-25.68,2.02-38.62,1.28-.13,2.9,7.22,3.03,9.57,3.39,11.34,1.75,23.44,2.04,34.42,5.66,3.45,1.14,4.78.11,3.97,4.91-6.56.48-12.41-2-18.98-2.18-45.47-1.25-90.44,10.65-133.64-8.09-47.42-20.57-90.46-57.13-142.31-69.56l-4.01,1.74c-9.8,12.64-20.07,25.31-31.82,36.19-12.98,12.02-34.9,26.98-51.92,32.01-25.15,7.43-12.07-10.19-5.08-22.06l-.02,13.96c32.34-5.82,53.21-40.42,71.94-64.94-7.46-3.54-16.41-1.9-24.08-3.97-3.54-.96-4.64-.65-3.89-4.98,10.34-6.27,31.33-1.16,39.12-5.88,4.38-2.65,30.07-42.07,36-49.93,9.52-12.61,22.65-23.16,28.82-38.11-1.33-1.12-18.43,8.31-20.98,9.98-35.47,23.26-68.38,52.83-104.32,75.55-3.92,2.48-9.78,7.17-14.13,7.99-14.59,2.78-33.02-13.76-38.81-26.26-4.77-10.3-5.18-13.43,2.41-22.26,2.38-2.77,21.71-15.76,24.95-17.03,2.41-.94,3.99.56,2.95,2.95-1.01,2.31-14.32,14.64-11.96,17.01,7.48-2.51,14.97-5.42,22.06-8.9,38.12-18.74,82.28-44.85,119.19-66.68,5.96-3.53,39.66-22.64,40.44-25.69.94-3.63-2.94-8.91-6.43-8.35-1.75.28-21.48,13.43-24.32,15.75-5.69,4.65-10.26,14.97-18.13,15.87-3.34.38-5.34-2.22-10.25-.46-12.28,4.4-25.48,23.75-38.63,28.49l35.92-35.14-23.86-43.94c-.1-27.75,12.04-69.23,7.81-95.62-1.05-6.58-7.62-11.71-5.69-18.91,16.11-8.54,29.52,12.53,33.82,25.8l5.95-2.02c.91,1.16-.56,18.73.01,23.01.28,2.08-.5,4.29,2.97,2.94,9.33-3.65,19.29-21.35,31.49-19.62,4.18.6,11.18,6.92,13.21.35l-.6-56.73c-1.55-2.28-3.26-1.84-5.58-1.58-7.9.9-23.25,8.96-31.48,11.65,13.86-36.78,43.73-68.75,78-29.02,17.85,20.7,8.77,23.3,4.87,44.94-7.24,40.24-6.39,81.44-10.92,121.94ZM2110.9,1085v35.97c9.27-6.92,13.46-18.82,18.01-28.95-8.59,1.69-11.3-2.87-18.01-7.01ZM2152.55,1112.65l-.66-19.65c-4.79,3.2-31.78,37.13-28.98,39.94l11.13-5.97-3.11-5.01,1.93-2.03c3.38.13,18.59-5.53,19.7-7.28ZM2181.72,1193.8c4.68-3.15,10.4-8.48,14.54-12.48,2.02-1.95,5.66-1.99,4.57-6.41l-29.96,21.96c7.64,1.87,7.67-.93,10.85-3.07ZM2148.88,1326.75c-11.5-12.03-5.31-19.19-6.05-30.72-.38-5.87-5.61-13.67-5.59-20.22.07-18.85,16.84-44.49,13.62-64.93l-19.93,20.98,7.94,3.98-53.95,77.96,63.96,12.96ZM2118.92,1250.84c3.99-1.84,7.03-6.11,9.19-9.79,1.88-3.22,4.41-2.59-.21-6.15-4.08,4.29-9.36,9.51-8.98,15.94ZM2026.95,1368.71c5.02-.24,11.75-7,11.97-11.97l-11.97,11.97Z"/>
  <path class="st0" d="M2331.79,785.27c2.7.24,8.12,1.52,11.98,2.05,2.69.37,6.02.79,3.01,3.92l-35.96,6.04c.3,3.95,8.03,1.5,11.06,1.9s6.15.36,6.92,4.05l-39.97,2.04c1.93,6.02,15.67-.83,13.97,7.96-1.44,1.15-18.13-1.02-22.6.05-1.49.36-1.21,3.53-2.75,3.9-6.15,1.47-15.16-1.47-20.59,5.08l17.01,4.97c5.77,2.06,20.93-6.19,20.94,3.98-5.72,2.03-25.25-.31-28.95.91-2.94.97-4.04,4.29-8.06,5.07-6.15,1.2-14.45-.79-20.95.04l3.99,7.96c-6.53-1.37-14.54,5.48-19.08,5.95-25.2,2.57-55.09-12.72-77.58-24.19-41.69-21.27-82.29-48.13-123.87-70-41.23-21.69-83.45-41.75-128.29-54.88-35.24,26.95-69.13,58.83-112.92,71.19,1.02-5.48,9.29-6.17,11.5-8.45,3.1-3.2,2.68-15.69,9.49-15.55l3.93,4.13c7.54-.93,55.97-47.26,59.01-55.07,1.46-3.76-1.19-2.5-2.98-2.92-7.37-1.75-18.19-4.53-24.96-2.04,3.87-20.18,26-8.86,39.97-10.94l31.96-40.03c-1.98-3.24-4.42.65-6.01,1.99-5.94,5.03-34.91,27.05-40.97,26.88-35.7-20.25,6.51-49.32,22.03-67.8,18.81-22.39,35.51-46.76,56.93-66.98-1.46-2.85-5.18.08-7.09.91-19.59,8.48-41.01,22.95-56.86,37.08,7.31,1.8,13.92-12.77,19.97-10.01l-85.36,66.57c-16.64,5.12-35.9-26.09-29.62-39.55,5.79-12.4,36.34-24.11,46.05-35.98l2.96,2.96-25.96,24.01,3,1.01,80.57-42.34,2.37-25.61c-3.38-3.64-27.2,15.78-31.95,17.97l19.95-25.89c-10.54-2.42-36.39-29.58-35.28-39.1l6.27-6.45c7.54,12.41,45-16.36,46.6-21.89l4.5-75.61c-1.41-10.08-13.56-15.91-12.24-27.72l19.13-12.59c12.73,5.12,33.68,14.47,39.15,28.26,6.12,15.44-6.63,44.59-6.06,61.91l1.88,2.27c10.24-2.87,37.3,13.4,37.32,23.88-3.92,4.52-.8,10.08-3.1,14.02-4.15,7.11-23.66,16.62-31.15,23-14.37,12.24-11.3,17.49-11.03,35.91,3.23,3.6,21.41-14.87,23.58-15.79,9.37-4,40.44,5.79,40.4,16.77,0,1.5-7.23,12.95-8.71,14.34-5.38,5.07-10.88,3.38-15.17,5.81-13.22,7.47-24.4,18.6-33.12,30.83-5.16-5.22,9.96-12.7,6.99-15.97-10.15,7.33-18.87,16.78-16.87,29.9l-33.08,37.05c2.25,2.68,6.99-1.51,9.3-2.7,9.35-4.82,44.34-29.7,49.82-30.27,9.46-.98,26.01,6.66,26.31,17.32.41,14.69-16.64,22.57-24.52,30.57-16.25,16.49-37.38,36.14-52.24,52.66-.78.86-2.96,4.92-2.68,5.31,78.79,12.54,154.02,44.46,231.46,61.39,62.63,13.69,133.21,20.14,197.33,28.54,7.6,1,18.33-2.83,22.98,5.99-14.12-.15-35.34-5.29-48.95-4.05-3.84.35-3.25-.29-3.03,4.07,9.45.6,19.62-.82,28.98,0Z"/>
  <path class="st0" d="M1557.19,388.64c-.54-1.89-4.24-4.01-6.52-2.59-15.17,8.02-31.83,8.2-42.46,23.56-1.61-6.35,5.33-16.83,8.99-22.99,8.48-14.29,24.85-33.53,40.91-39.05,22.74-7.81,60.86,21.9,59.23,47.09-.5,7.71-6.97,24.65-8.15,35.96-5.68,54.39,3.4,114.41-4.19,167.65-.49,3.44-6.65,20.81-8.43,22.55-.67.65-15.25,8.5-16.59,8.62-15.7,1.4-23.96-25.13-27.99-25.93-24.41,18.19-8.88,14.53,3.32,22.79,30.39,20.58-2.6,51.96,9.88,70.06,9.28,13.46,38.1,8.61,52.93,6.95,22.5-2.51,79.87-12.04,96.81-25.12,10.03-7.75,12.71-19.76,13.92-32.04,1.29-13.05,2.39-34.49,2.34-47.71-.02-4.05-4.39-26.66-3.07-26.98,4.46-1.1,2.79,3.59,3.52,6.38,4.11,15.75,8.6,31.56,11.46,47.59l5.98-.02-3.97-19.97c2.11-2.9,16.93,33.89,13.98,37.97l6.09-1.08c2.45,1.4,7.57,15.76,9.85,19.58,2.86,4.78,8.81,7.92,11.43,17.06,12.95,45.3-53.77,58.23-84.97,63.72-42.63,7.5-135.06,19.99-163.16-19.48-23.27-32.68-3.5-52.59-2.96-82.82.15-8.03-2.25-15.56-10.21-8.01-38.57,36.59-57.12,80.01-106.17,109.67-2.15,1.3-17.04,9.98-17.72,9.25-1.33-5.38,1.32-5.16,3.37-7.6,8.15-9.69,18.44-17.79,26.54-27.42,27.12-32.21,49.25-71.07,76-103.88l-.96-2.95c-6.83,2.13-13.47,14.13-18.41,15.58-5.5,1.62-9.64-1.02-13.67-.7-6.12.5-7.77,6.51-16.87.03-18.73-13.33,2.96-20.58,3.81-24.12.54-2.27-16.06-31.89-15.91-43.66.09-6.89,3.54-16.78,4.04-24.1,1.76-25.88,2.26-51.81,6.34-77.59,1.28-8.09,10.24-55.21,18.68-55.2,12.37,10.97,15.62,28.39,19.02,43.88l5.95-9.97-3.96,91.9c7.31-8.22,25.07-27.16,27.91-37.03,1.44-5.01-8.58-2.41-12.52-3.36-4.41-1.06-11.9-6.45-9.12-11.3.88-1.53,26.86-18.57,29.62-19.31,9.55-2.55,16.66-1.21,24.04,5.05-.61-2.04,2.02-4.3,2.02-4.99v-65.94ZM1555.19,509.53v-27.97c-12.59,11.07-27.42,20.03-36,34.95,7.47-1.52,13.57-9.75,21.14-10.89,6.43-.97,9.93.02,14.86,3.92ZM1555.2,551.5l-1-19.98c-2.57,3.56-20.89,17.54-16.99,21.96l17.99-1.98ZM1517.21,541.52c-9.51,4.65-11.56-2.56-19.98-4,1.35,10.1-2.44,20.45.02,29.95l19.96-25.94ZM1533.19,555.5c-2.53-2.13-18.21,13.83-15.97,15.96l16.2-8.95-.23-7.01ZM1447.26,711.34l-1.01-3.99-11,13.96,9-7.97,1.98,3.98c2.18-2.85,9.41-6.72,6.02-9.97l-4.99,3.98Z"/>
  <path class="st0" d="M1940.38,1063.64c1.7,1.38,12.52,15.33,13.44,17.53,7.96,19.06-2.82,26.77-7.85,43.77-9.93,33.54-15.77,112.65-45.08,132.76-3.15,2.16-15.9,6.63-19.18,6.73-6.62.2-24.79-19.89-26.66-17.56l-5.88,138.77-6.14,2.1,1.01,4.98,4.99-3.99v21.97s-5.96-5.97-5.96-5.97l-.03,10.97,6-2.98.02,128.82c-4.19,25.54-5.83,61.26-14.12,85.46-.57,1.67-7.11,5.07-6.86,9.49-3.96-1.64-8.76-44.63-9.09-50.86-5.42-102.76,1.4-210.29-1.83-313.88-.35-11.34-.49-45.3-2.57-53.38-1.43-5.58-28.58-42.68-35.53-38.6-6.04,7.65-9.25,16.27-8.06,26.19,1.04,8.66,7.69,13.24,10.52,19.48,11.06,24.38-17.28,62.14-42.06,30.06-6.76-8.75-13.82-30.53-18.18-35.38-1.82-2.02-5.21-.75-5.84-1.45-.87-.95-.17-6.79-1.25-9.84-1.9-5.35-6.73-10.05-7.06-15.92,1.33-1.18,19,1.86,22.39,2.58,5.99,1.27,22.4,8.22,25.56,6.52l17.69-30.46c-9.49-14.02-21.42-20.19-11.65-38.6,15.71,3.87,17.32,18.16,32,1.04,9.03-10.54,8.06-31.74,25.95-21.97l69.25-58.7c11.75-8.53,42.23,2.35,52.07,10.32ZM1868.63,1204.46c11.04-6.3,22.09-85.94,20.37-101.48-10.82,5.72-54.35,44.04-55.95,53.02-.24,1.35-.48,3.94.2,4.74,6.59.85,20.8,10.23,22.64,16.23l1.14,27.92c3.35-.46,8.92,1.1,11.6-.43ZM1815.04,1178.92l-7.98,2.98c2.16,3.07,4.29,3.48,7.98,3v-5.97ZM1825.07,1372.73c5.51-1.49,2.07-5.74,1.96-9.98h-1.96s0,9.98,0,9.98ZM1829.05,1386.7c-5.59-3.48.06-9.82-3.97-11.95l-2.05,10.96,6.02,1ZM1825.05,1403.7c.35,10.97-.25,22.02,0,32.97,6.14,1.44,2.46-.87,2.84-3.28,2.1-13.59-1.13-28.9,1.17-42.66h-6c-.84.8,1.91,10.52,1.99,12.97ZM1845.03,1440.66v-5.98s-5.98,5-5.98,5l5.98.98ZM1825.07,1450.66l4.08-4.99-3.11-4.99-.97,9.98ZM1841.06,1458.65c5.14-1.61,4.06-7.71,3.96-11.98-4.07.76-2.99,9.06-3.96,11.98Z"/>
  <path class="st0" d="M2882.73,405.38c10.75,3.83,37.74,15.52,37.64,29.22,0,.95-5.28,17.21-5.9,17.97-3.11,3.8-40.62,20.14-35.95,26.96,10.6,3.6,21.09,16.33,31.89,19.17,3.42.9,6.74-1.59,10.55-.81,2.56.52,14,4.64,16.26,5.91,15.02,8.4,7.98,28.53-4.89,34.56-9.3,4.36-12.85,4.94-22.48,11.5-6.85,4.67-38.65,29.76-40.81,35.13-4.15,14.24-1.87,28.94-2.44,43.51-.94,24.28-1.02,48.98-.07,73.83.81,21.27,10.27,54.42-6,72.17-2.4,2.62-4.87.94-5.54,1.48-2.77,2.24-5.33,8.91-11.15,8.95-19.04-8.34-31.07-28.78-41.64-46.27-8.93-14.78-15.45-31.07-23.92-46.03-2.18-3.86-6.26-4.23-7.69-6.81-2.13-3.83-1.64-11.72-6.02-15.46l11.04-.77,30.92-38.17c-1.74-1.56-27.51,16.83-31.89,19.05-10.82,5.49-26.9,12.78-38.96,10.79-13.08-2.16-27.77-24.94-31.19-36.74-7.04-24.34,13.37-28.25,29.03-41.12,4.02-3.3,13.14-14.66,16.07-15.91,10.61-4.55-8.28,14.1-8.97,15.02-3.3,4.35-9.32,12.81-10.07,17.94-.46,3.18-.1,3.37,2.97,2.97,36.56-13.19,69.06-36.05,102.68-55.25l2.31-58.62-15.96,7.98,5.12-13.98c-13.33-9.79-37.87-24.92-33.11-43.96,6.01-.73,7.94,4.93,14.45,3.69,3.52-.67,33.03-17.24,33.54-19.1-1.93-20.66,8.57-57.61-2.37-75.18-3.89-6.25-16.56-13.78-10.66-23.3.39-.63,9.49-7.3,10.42-7.57,20.56-5.94,56.1,17.8,54.48,40.3-.58,8.08-15.41,41.14-11.7,46.94ZM2876.46,487.56c-3.56-3.08-3.34.55-3.92,2.97-2.92,12.16-1.09,24.82-4.03,36.96,1.26,1.23,26.27-8.32,20.46-21.45-.45-1.02-11.67-17.75-12.51-18.48ZM2832.5,623.42l-51.47,56.92c-.69,8.29,32.84,29.98,40.87,30.74,6.6.62,7-14.77,8.37-18.97l2.23-68.69Z"/>
  <path class="st0" d="M2552.67,1154.93c-.84,1.53-4.59,9.37-3.99,9.98l11.97-4.99c-8.21,9.06-26.56,21.54-28.02,33.93-3.08,26.08-.88,70.49-.04,98.04.73,23.89,11.29,58.44-5.07,78.69-14.45,17.9-26.77,3.47-36.5-9.18-16.9-21.97-29.19-49.36-42.27-73.69l-14.03,7.07,8.09-12.92-4.22-2.25c-1.09-7.39,23.29-25.84,24.1-36.75l-44.6,28.33c-20.17,9.16-33.07,9.21-49.39-7.31-28.8-29.13-11.96-38.65,15.05-56.99,1.44,6.9-7.48,13.25-9.01,19.95,6.28,4.69,48.53-19.86,56.57-24.36,8.85-4.96,66.47-39.43,68.34-43.59l3.02-53.92c-8.61-1.95-12.37,6.93-19.98,7.98-1.01-.92,8.08-6.93,4.18-12.58-11.52-4.49-35.32-25.43-33.39-38.43.23-1.52,5.77-6.87,6.23-6.87,2.08,0,2.21,8.43,14.06,4.04,3.73-1.38,31-18.15,31.93-20.06.77-20.54,5.69-44.44,2.8-64.77-1.7-11.96-9.1-12.36-12.3-19.68-5.38-12.28,3.54-11.67,11.12-15.46,1.37-.68,1.19-4.07,2.51-4.1,9.01-.23,30,12.54,35.7,20.22,16.31,21.97-4.15,37.62-.6,61.55,6.75,2.54,27.3,8.99,31.72,13.25.65.63,7.88,15.14,8.02,16.13,2.42,16.64-26.43,29.56-35.97,39.82.03,1.83,29.16,18.12,31.51,18.6,6.23,1.26,11.55-3.33,20.28,1.54,14.61,8.15,3.07,13.64,1.23,18.75-1.95,5.44,5.11,9.52-11.08,12.06l-.02-8c-7.53-2.9-10.69,5.73-13.88,6.91-3.55,1.31-11.44,2.1-16.29,5.67-4.28,3.15-8.33,6.33-11.77,10.42l3.96,3c.57-1.03.38-3.73,1.92-5.04,5.2-4.43,6.36,4.59-1.92,5.04ZM2534.69,1136.94c1.35,1.56,27.01-16.34,27.8-19.33,1.94-7.32-19.26-18.17-19.84-26.61-5.58-3.97-7.97,42.04-7.96,45.94ZM2496.7,1291.8c2.22-20.32-1.64-44.21,0-64.94l-37.91,45.02-4.09-.08,4.02-6.95c-1.71-1.32-11.42,4.91-12.09,8.99-.2,1.2,12.25,17.85,14.31,19.74,4.22,3.87,26.39,17.36,30.87,13.45,2.33-3.31,4.48-11.49,4.89-15.23Z"/>
  <path class="st0" d="M1723.85,1171.75c-1.13.9.07,4.33-3.67,3.11l-10.06-11.91c-10.28,5-8.98,15.55-17.21,22.73-1.65,1.44-4.97,1.63-6.78,3.21-12.01,10.43-23.09,23.06-38.65,28.3l-2.32,55.61c3.64.51,5.79-2.57,8.57-4.4,8.98-5.91,19.85-14.73,28.34-21.63,5.63-4.58,18.83-19.6,24.07-21.9,9.4-4.12-3.25,9.87-3.58,10.49-1.26,2.38-10.29,22.53-9.43,23.45l15.97-9c-4.9,9.7-8.64,20.36-14.33,29.63-6.78,11.04-30.86,44.12-39.52,52.42-1.88,1.8-12.83,8.6-14.73,8.5-15.79-.82-38.74-36.44-38.78-50.96-.01-4.07,4.66-13.06,5.42-19.61,2.87-24.52,2.36-51.11,4.04-75.89,1.23-18.13,8.48-50.89,5.08-67.08-1.71-8.16-11.18-18.56-9.18-26.41.45-1.77,6.41-3.26,6.28-7.23h2.51s25.97,17.62,25.97,17.62c12.73-7.18,32.07-33.95,46.28-33.84,5.32.04,13.62,5.86,17.09,3.21l7.87-53.12c-5.09-5.62-44.33,39.47-48.86,42.06-16.88,9.67-51.02-10.85-61.1-25.07-4.19-5.91-9.23-19.06,1.3-20.86,4.37-.75,4.01,8.04,14.13,4.36,27.53-10.03,61.15-44.53,91.16-56.82,22.99-9.42,54.59,4.8,67.83,24.86,14.24,21.58,4.17,23.95-2.88,42.07-13.56,34.86-20.73,73.99-33.53,108.35-4.28,11.49-7.47,17.95-17.31,25.75ZM1695.11,1138.95l3.99-23.98c-4.33,2.89-20.33,16.5-15.87,21.87l11.88,2.11ZM1665.12,1128.97l-13.99-.02.03,25.98,13.96-25.96ZM1651.16,1176.91c9.52-5.3,49.85-29.67,24.91-35.92-6.39.16-28.84,30.94-24.91,35.92ZM1697.12,1172.93l-17.99,13.95c5.59-.03,9.22-2.19,8.01-7.99l5.75,1.94,4.24-7.89Z"/>
  <path class="st0" d="M851.58,721.33c-.8-3.75,1.83-4.85,4.14-6.84,15.71-13.58,35.31-22.64,49.82-37.1l-49.84,23.18c-2.16,5.95-6.94,4.55-10.84,7.01-13.32,8.41-27.82,24.2-42.66,29.34-1.72.6-6.34,1.49-3.62-1.62,17.12-9.03,30.68-22.21,44.99-34.97-2.1-3.36-4.37.89-5.99,2.01-8.17,5.69-19.12,17.39-27.98,15.99l15.97-12.01-2.96-.97c-10.09,8.23-20.58,15.57-30.5,23.98-11.14,9.45-21.14,12.61-33.46,22.01-19.99,15.25-38.77,33.6-58.07,49.85-9.83,8.28-21.3,14.57-28.92,25.05-.32,1.48,2.12,1.38,2.96.98,4.61-2.21,15.76-11.39,20.97-15.06,2.59-1.83,3.32-5.57,4.58-6.36,1.79-1.11,5.03-.45,7.3-1.62,2.77-1.43,5.48-7.5,8.14-3.93-9.77,9.89-22.49,16.17-33.81,24.15-3.41,2.4-6.05,6.79-9.48,8.65-4.97,2.69-8.26-.45-11.74,1.94-2.68,1.84-3.5,5.69-5.57,7.59-1.55,1.42-5.44.97-7.52,3.48-1.78,2.15-1.32,6.03-2.06,6.95-.17.21-3.42-1.07-5.24-.41-3.11,1.12-2,6.68-8.51,4.6,78-72.93,165.49-136.13,233.87-218.79-15.51-3.39-40.59,12.66-54.71,6.83-12.06-4.98-22.11-21.95-26.19-33.84-9.42-27.42,1.89-39.06,9.49-64.36,12.15-40.45,35.54-106.57,39.43-146.42.9-9.18,2.88-30.97-11.33-25.47-5.34,2.07-10.43,2.6-12.56,3.5-4.14,1.73-7.76,9.81-11.08,12.99l-1.03-3.01c7.94-12.7,26.83-49.36,43.08-50.88,20.92-1.95,49.91,22.48,49.09,44.93-12.69,44.05-25.93,88.1-37.6,132.43-2.37,9-15.57,56.21-14.29,60.95,3.69,13.62,43.55,3.61,54.37,4.16,22.93,1.17,64.56,31.32,65.38,56.26.32,9.66-9.25,28.04-17.01,33.15-3.5,2.3-6.09-.34-8.92.82-8.14,3.33-29.14,16.77-37.85,22.19-14.39,8.96-27.52,20.23-42.23,28.7Z"/>
  <path class="st0" d="M1510.5,1084.29c-13.07,14.25-20.01,8.18-34.41,10.38-19.24,2.95-60.05,22.17-73.91,36.19-6.4,6.47-11.33,15.75-14.93,24.05-3.63.49-1.84-4.32-1.09-6.09,2.01-4.74,6.83-9.87,9.1-14.89l-2.95-.96c-34.04,19.59-66.72,42.22-101.64,60.26-28.14,14.54-51.38,28.43-81.14,6.49-15.12-11.14-38.43-40.68-32.25-59.9,4.19-13.03,6.96-7.28,11.92-10.01,9.04-4.99,16.44-14.17,28.15-14.84l-7.8,21.77c4.15,5.96,30.49-3.63,36.83-5.76,48.69-16.36,110.85-47.09,157.58-70.27,5.73-2.84,20.23-8.74,24.07-11.9,4.21-3.47,3.37-8.63,9.39-12.6,16.69-11.01,39.44-2.57,55.76,5.85,14.94,7.7,31.86,26.35,17.31,42.22Z"/>
  <path class="st0" d="M599.71,581.46c1.93,2.4,40.76-37.2,42.97-41.95.51,12.05-11.16,23.04-10.98,35.96l22.98-21.97c3.53,6-4.3,10.75-6.47,15.51-2.84,6.23-5.22,18.91-7.67,24.26-15.31,33.42-39.55,66.17-54.32,99.61-2.11,4.77-1.75,11.54-3.52,14.47s-7.76,3.28-10.84,5.15c-6.25,3.78-3.78,7.98-14.22,6.03-19.84-3.71-35.11-31.73-40.91-49.13-.96-2.87-4.32-13.43-4.6-15.45-.89-6.38,9.31-20.69,11.9-29.22,5.6-18.47,14.85-69.44,10.34-86.85-4.07-15.69-23.9-24.89-18.62-44.31,9.72,5.29,16.59-1.92,22.69-1.95,15.46-.09,46.85,21.57,56.31,33.87,16.04,20.85,9.86,32.45,4.97,55.99Z"/>
  <path class="st0" d="M2040.95,461.56c.84.83,19.03-7.83,21.73-9.23,10.79-5.58,38.69-25.22,48.77-24.29,15.48,1.43,43.94,22.84,46.94,38.99,3.24,17.41-3.65,13.42-10.33,24.7-14.63,24.7-12.21,40.99-36.92,61-4.66,3.77-4.08,8.85-12.98,8.61-12.94-.34-14-10.41-20.11-9.99-11.51.79-18.53,11.64-29.1,14.11l23.67-25.24-8.68-14.67-12.98,15.94c4.46-8.86-2.59-3.03-2.02-9.96l9.21-4.93-2.21-9.07c-14.81,10.71-20.69,27.51-30.65,41.3-1.79,2.48-2.09,5.56-6.33,4.64l23.99-49.94c-18.35,3.55-41.32-27.49-37.04-43.08,1.72-6.26,40.37-53.97,44.08-54.81,19.04,5.47-12.8,42.19-9.03,45.92ZM2098.91,481.57c-5.95-4.84-25.26,25.03-27.01,29.96-2.46,6.96,8.92,7.68,12.61,5.55,4.48-2.59,12.15-29.33,14.4-35.51Z"/>
  <path class="st0" d="M2150.18,582.16c6.64,6.27,11.15,17.59,6.89,26.48l-28.17,30.19c-8.11,13.98,15.07,8.88,19.55,22.01,3.41,9.99-2.84,7.79-5.63,11.41-1.84,2.39-1.83,5.8-4.01,8.06-8.72,9.05-14.75,4.05-22.86,4.93-3.68.4-14.52,2.1-17.73,2.85-8.72,2.06-22.98,11.29-31.19,8.23-6.44-2.4-9.15-12.18-16.1-12.95,3.23,49.67-29.71,22.31-41.4-5.6-10-23.89-4.01-40.5-3.35-65.02.2-7.16-3.46-15.32.78-23.3l17.64,19.29,9.31,20.65c5.57-4.58,6.47-12.68,10.09-17.89,8.49-12.22,50.78-41.77,64.87-45.18,8.71-2.11,34.61,9.52,41.29,15.83ZM2098.9,603.45c-1.81-1.83-29.73,16.38-35.44,17.53-7.38,1.49-10.89-1.54-15.71-1.46-13.22.23-2.99,39.86-.79,47.85,15.06,2.22,56.47-59.33,51.94-63.93Z"/>
  <path class="st0" d="M1383.26,1158.93c-3.31,5.86-.34,12.86-.88,17.05-.3,2.31-3.91,4.82-4.59,8.45-4.4,23.6-4.74,44.56-2.49,68.4l7.71-33.32,4.26-4.61c-2.73,20.19-3.15,44.34-2.08,65,.43,8.32,2.02,30.73,4.61,37.35.97,2.46,2.51,3.88,4.47,5.49l16.99-15.93-7.98,23.95c7.67,1.69,7.36-14.92,14.01-10.95l-15.13,58.81c-1.68,4.53-12.71,15.96-17.52,15.7-21.64-1.17-45.6-47.45-45.49-66.56.04-6.48,3.48-10.8,3.99-16.14,1.22-12.81.61-26.41,2.42-39.54,5.28-38.34,16.29-74.24,26.72-111.28l10.98-1.87Z"/>
  <path class="st0" d="M739.61,491.56c-6.71,13.46-11.4,28.92-13.97,43.93,5.76-4.2,9.45-19.1,13.93-23.01,2.44-2.14,5.03-1.47,4.01,2-12.39,30.9-20.09,63.56-30.95,94.96-1.99,5.76-3.58,10.7-5.42,16.57-1.43,4.56-16.26,14.05-21.65,12.57-13.71-3.77-32.43-43.44-33.44-56.66-.7-9.19,5.69-7.7,8.58-14.39,3.82-8.84,9.21-39.6,6.54-48.59-2.42-8.16-9.2-2.95-9.56-3.41,1.67-38.33,50.21-19.2,54.94,7.98,8.45-7.46,12.73-20.02,20.19-27.77,2.07-2.14,2.87-5.09,6.8-4.17Z"/>
  <path class="st0" d="M2586.66,1308.77l20.97-13.98c2.26-2.4,7.07-5.43,7.08-8.98,0-3.1-20.2-22.58-24.03-26-4.2-3.75-24.96-17.91-26-19.97-2.64-5.2,16.26-4.86,18.85-4.97,36.7-1.55,82.23,5.59,109.06,32.98,6.98,7.13,19.79,26.35,19.98,36.18.06,3.04-6.88,16.93-9.01,18.72-.68.57-15,8.02-15.89,8.04-3.11.05-5.8-3.27-8.49-3.65-4.05-.57-7.07,2.45-12.61.84-7.09-2.06-20.5-12.99-28.11-16.01-17.36-6.89-33.69-6.82-51.79-3.19Z"/>
  <path class="st0" d="M2912.49,709.33c-4.21-4,24.77-15.69,23.7-22.6-12.6-14.18-23.21-35.22-41.7-41.36,10.59-9.62,35.17-9.2,48.94-7.93,28.88,2.66,72.66,27.23,74.58,59.47.24,4.08-6.62,20.68-9.5,23.51-21.1,20.71-47.3-11.12-67.52-14.59-10.73-1.84-18.57.28-28.5,3.5Z"/>
  <path class="st0" d="M1512.66,1274.27l-18.4,6.71c-19.16-5.4-38.07-23.36-56.99-8.15l9.03-20.01-46.99-34.93c29.09-21.59,75.39-20.81,103.93,1.97,19.71,15.74,26.3,33.19,9.42,54.42Z"/>
  <path class="st0" d="M1058.75,494.24c9.11,9.83,13.3,26.39,3.5,37.07-14.6,15.91-23.67,3.64-37.3,8.58l-23.47,15.57c2.85-7.87,12.01-22.44,9.67-30.51-1.38-4.77-22.47-25.57-26.74-35.32-3.82-8.71-5.91-15.6,3.95-20.17,9.15,8.25,13.55,3.15,22.11,3.92,15.15,1.37,37.82,9.54,48.29,20.85Z"/>
  <path class="st0" d="M2572.66,469.55l11.67-18.6c-1.5-10.02-33.57-25.6-19.76-36.33,11.93.55,21.92-4.48,33.71-1.63,15.08,3.65,40.08,21.87,38.32,39.4-.38,3.79-6.71,16.09-10.07,18.07-17.57,10.33-22.96-7.22-36.91-7.11-8.1.07-9.96,5.44-16.96,6.19Z"/>
  <path class="st0" d="M2434.73,1288.83c-1.28,2.99-2.21,6.21-3.99,8.98-2.83,4.41-14.72,17.1-15.98,20-3.21,7.39,10.23-2.06,10.99-5.01,1.95,3.96-4.83,9.99-7.35,14.64-5.89,10.85-11.35,27.45-25.16,30.96-11.2,2.85-18.8-17.38-18.04-26.17,1.06-12.29,13.74-25.65,17.59-37.41l3.97.99c2.34,17.74-10.45,29.51,17.85,11.85l20.12-18.83Z"/>
  <path class="st0" d="M2730.57,693.37c-2.89,35.34,10.56,20.43,25.01,3.99l1.01,3.99,7.01-5.97c8.96,1.71-.44,4.48-1.98,5.93-12.41,11.76-9.34,16.8-16.3,29.78-1.96,3.65-13.88,17.65-17.26,17.72-12.2.24-15.55-6.52-15.62-18.46-.06-11.66,6.08-25.72,13.56-34.44,1.23-1.43-.07-3.78,4.57-2.53Z"/>
  <path class="st0" d="M881.53,1468.61l-35.96,16.04,15.97,3.95c-15.81-.1-31.42,13.14-47.16,6.21-18.87-8.31,11.61-23.45,20.23-26.14,1.02-.32,3.26-.55,2.95.96l-11.98,12.98c19.94,1.74,37.35-10.69,55-17.94l.96,3.94Z"/>
  <path class="st0" d="M2558.26,1489.16c.28.13.26,2.33,1.03,2.72,2.53,1.27,5.9-.54,5.37,2.72l-7.12,1.85-1.88-3.93c-21.96,8.53-72.21,10.69-92.02-1.81-2.61-1.65-5.84-1.6-4.9-6.07,22.05,8.42,47.22,11.92,70.92,9.95,4.92-.41,27.15-6.1,28.61-5.43Z"/>
  <path class="st0" d="M461.76,985.11c-.53,2.65-3.33,4.15-5.36,5.62-6.43,4.64-43.4,25.74-48.61,18.32-1.01-7.45,6.88-10.96,11.01-15.95l.98,7.96c3.96,3.62,35.41-14.5,41.97-15.95Z"/>
  <path class="st0" d="M627.67,861.22c-8.36,14.95-27,20.35-37.28,33.65l-16.69,10.27c2.88-3.99,7.82-8.69,11.58-11.86,10.85-9.16,22.55-18.99,33.7-27.69,1.51-1.17,7.06-5.82,8.69-4.37Z"/>
  <path class="st0" d="M1978.97,619.41l27.96-37.94c-1.8,6.54-8.1,17.68-11.98,22.97-1.64,2.24-13.66,17.1-15.99,14.97Z"/>
  <path class="st0" d="M2644.62,1468.66c-1.64,3.87-22.94,12.82-23.97,11.96-3.61-3,2.62-4.32,3.89-5.01,5.66-3.04,13.64-6.19,20.09-6.96Z"/>
  <path class="st0" d="M3300.28,1436.65c-6.42.09-16.26.56-19.99-5.95,6.09.28,16.42-.02,19.99,5.95Z"/>
  <path class="st0" d="M752.94,768.75l-5.47,3.19c-2.57,3.57-2.32-2.01-1.52-3.3,2.66-4.28,7.43-8.56,11.63-11.35l-4.64,11.45Z"/>
  <path class="st0" d="M515.75,949.12c-2.97-3.12,15.77-14.38,17.95-15.98,2.97,3.12-15.77,14.38-17.95,15.98Z"/>
  <path class="st0" d="M1721.09,811.26c.83,7.92-12.06,4.48-15.97,3.96l15.97-3.96Z"/>
  <path class="st0" d="M3316.26,1420.71c-1.68,5.9-19.94-2.38-15.97-6.01l15.97,6.01Z"/>
  <path class="st0" d="M567.7,909.18c-3.17,5.19-9.82,10.84-15.99,11.95,3.17-5.19,9.82-10.84,15.99-11.95Z"/>
  <path class="st0" d="M477.75,975.12c-2.52,5.6-9.04,7.32-13.97,9.97-3.19-3.23,11.58-10.5,13.97-9.97Z"/>
  <polygon class="st0" points="3262.3 1408.72 3259.64 1412.39 3246.32 1406.72 3262.3 1408.72"/>
  <path class="st0" d="M2584.65,1138.97c1.51,1.4-8.17,11.51-11.99,9.95-.66-.56,9.53-12.25,11.99-9.95Z"/>
  <path class="st0" d="M777.59,751.32c-2.33,4.34-9.26,7.41-13.99,7.95,2.33-4.34,9.26-7.41,13.99-7.95Z"/>
  <path class="st0" d="M2014.92,577.45c-5.56-1.86.05-11.39,4-11.97l-4,11.97Z"/>
  <path class="st0" d="M3332.27,1398.72l-.02,3.97-9.98-2.01c1.52-5.6,5.73-1.87,10-1.96Z"/>
  <path class="st0" d="M741.62,793.26c-.85-4.81,4.5-6.24,7.97-7.98,1.91,2.32-4.93,9.47-7.97,7.98Z"/>
  <path class="st0" d="M723.62,807.27c-2.13,3.65-5.79,8.48-9.99,7.95,2.13-3.65,5.79-8.48,9.99-7.95Z"/>
  <polygon class="st0" points="733.61 799.27 733.61 803.22 725.63 805.25 725.63 801.29 733.61 799.27"/>
  <path class="st0" d="M2434.72,1300.81v2.96c-2.44,2.37-4.14,5.78-7.99,5l4.03-7.96h3.95Z"/>
  <path class="st0" d="M2042.94,549.51l-5.03,5.96h-2.96s0-2.95,0-2.95c2.1-3.14,4.29-3.49,7.98-3.01Z"/>
  <path class="st0" d="M703.63,823.26c-1.46,3.72-6.43,6.17-9.99,5.95,1.61-4.18,5.49-6.68,9.99-5.95Z"/>
  <path class="st0" d="M2608.63,1482.65c2.81,1.33-9,5.27-11.97,3.96-2.74-1.29,8.71-5.5,11.97-3.96Z"/>
  <path class="st0" d="M827.57,737.34l-7.98,5.97c-.52-5.04,3.18-6.76,7.98-5.97Z"/>
  <path class="st0" d="M2368.77,785.25h-7.99s0-3.97,0-3.97c3.73-.52,6.92,0,7.99,3.97Z"/>
  <polygon class="st0" points="1695.11 795.27 1695.11 799.24 1689.14 801.26 1689.13 795.27 1695.11 795.27"/>
  <path class="st0" d="M791.59,741.33c-1.07,3.97-4.27,4.49-8,3.96,1.07-3.97,4.27-4.49,8-3.96Z"/>
  <path class="st0" d="M591.69,905.18c-1.44,3.25-4.39,6.61-7.99,5.96,1.44-3.25,4.39-6.61,7.99-5.96Z"/>
  <path class="st0" d="M3348.26,1408.68c-3.73.53-6.93.02-8-3.96,3.73-.53,6.93-.02,8,3.96Z"/>
  <path class="st0" d="M771.6,747.33c-1.44,3.25-4.39,6.61-7.99,5.96,1.44-3.25,4.39-6.61,7.99-5.96Z"/>
  <polygon class="st0" points="3268.3 1416.71 3268.28 1420.68 3260.3 1418.67 3260.32 1414.69 3268.3 1416.71"/>
  <path class="st0" d="M2384.75,1404.72v1.96s-9.98,0-9.98,0c1.49-5.51,5.74-2.07,9.98-1.96Z"/>
</svg>